<svg aria-hidden="true" style="position: absolute; width: 0; height: 0; overflow: hidden;" version="1.1" xmlns="http://www.w3.org/2000/svg" xmlns:xlink="http://www.w3.org/1999/xlink">
<defs>
<symbol id="icon-Group-41" viewBox="0 0 32 32">
<path fill="#e0e0e2" style="fill: var(--color1, #e0e0e2)" opacity="0.7" d="M29.322 6.477h-29.319c0 0 0.025 17.464 0 18.43-0 0.008-0 0.017 0 0.025 0.025 0.93 0.406 1.8 1.073 2.45 0.668 0.652 1.55 1.010 2.483 1.010h15.486c0.125 0 0.244-0.050 0.332-0.138l10.277-10.277c0.088-0.088 0.138-0.208 0.138-0.332v-10.698c0-0.259-0.21-0.47-0.47-0.47z"></path>
<path fill="#c6c5ca" style="fill: var(--color2, #c6c5ca)" opacity="0.7" d="M8.498 18.758h1.919l1.539-4.829 7.452-7.452h-1.753l-7.452 7.452-1.705 4.829z"></path>
<path fill="#c6c5ca" style="fill: var(--color2, #c6c5ca)" opacity="0.7" d="M29.322 6.477h-1.566v13.398l1.898-1.898c0.088-0.088 0.138-0.208 0.138-0.332v-10.698c0-0.259-0.21-0.47-0.47-0.47z"></path>
<path fill="#3c5156" style="fill: var(--color3, #3c5156)" opacity="0.7" d="M21.4 19.143h-13.007c-0.259 0-0.47-0.21-0.47-0.47s0.21-0.47 0.47-0.47h13.007c0.259 0 0.47 0.21 0.47 0.47s-0.21 0.47-0.47 0.47z"></path>
<path fill="#919191" style="fill: var(--color4, #919191)" opacity="0.7" d="M3.569 21.184c0.203 0 0.401 0.018 0.595 0.050v-19.403c0-0.259-0.21-0.47-0.47-0.47-2.037 0-3.694 1.657-3.694 3.694v19.237c0.242-1.756 1.747-3.108 3.569-3.108z"></path>
<path fill="#ffd039" style="fill: var(--color5, #ffd039)" opacity="0.7" d="M25.497 6.029l-2.821-2.821c-0.088-0.088-0.208-0.138-0.332-0.138s-0.244 0.050-0.332 0.138l-10.388 10.388c-0.006 0.006-0.012 0.013-0.018 0.020l3.536 3.432 10.355-10.355c0.184-0.184 0.184-0.481 0-0.664z"></path>
<path fill="#ffa304" style="fill: var(--color6, #ffa304)" opacity="0.7" d="M13.851 15.796l1.29 1.253 10.355-10.355c0.183-0.184 0.183-0.481 0-0.664l-0.94-0.94-10.706 10.707z"></path>
<path fill="#ffc89f" style="fill: var(--color7, #ffc89f)" opacity="0.7" d="M11.607 13.618c-0.042 0.046-0.075 0.099-0.096 0.16l-1.537 4.355c-0.060 0.171-0.017 0.36 0.111 0.488 0.090 0.090 0.21 0.138 0.332 0.138 0.052 0 0.105-0.009 0.156-0.027l4.355-1.537c0.084-0.030 0.155-0.082 0.209-0.149l-3.53-3.427z"></path>
<path fill="#f7b081" style="fill: var(--color8, #f7b081)" opacity="0.7" d="M10.417 18.758c0.052 0 0.105-0.009 0.156-0.027l4.355-1.537c0.084-0.030 0.155-0.082 0.209-0.149l-1.288-1.25-3.492 1.25-0.384 1.088c-0.060 0.171-0.017 0.36 0.111 0.488 0.090 0.090 0.21 0.138 0.332 0.138z"></path>
<path fill="#3c5156" style="fill: var(--color3, #3c5156)" opacity="0.7" d="M10.417 18.758c0.052 0 0.105-0.009 0.156-0.027l2.746-0.97-2.381-2.364-0.965 2.734c-0.060 0.171-0.017 0.36 0.111 0.488 0.090 0.090 0.21 0.138 0.332 0.138z"></path>
<path fill="#304144" style="fill: var(--color9, #304144)" opacity="0.7" d="M12.004 16.455l-1.646 0.589-0.384 1.088c-0.060 0.171-0.017 0.361 0.111 0.488 0.090 0.090 0.21 0.137 0.332 0.137 0.052 0 0.105-0.009 0.156-0.027l2.746-0.969-1.316-1.307z"></path>
<path fill="#ff6137" style="fill: var(--color10, #ff6137)" opacity="0.7" d="M27.023 4.503l-2.821-2.821c-0.183-0.183-0.481-0.183-0.664 0l-1.857 1.857 3.484 3.486 1.858-1.858c0.088-0.088 0.137-0.207 0.137-0.332s-0.049-0.244-0.137-0.332z"></path>
<path fill="#e04f32" style="fill: var(--color11, #e04f32)" opacity="0.7" d="M23.893 5.753l1.272 1.272 1.858-1.858c0.088-0.088 0.137-0.207 0.137-0.332s-0.049-0.244-0.137-0.332l-0.94-0.94-2.19 2.19z"></path>
<path fill="#546f7a" style="fill: var(--color12, #546f7a)" opacity="0.7" d="M28.286 1.879l-1.46-1.46c-0.27-0.27-0.63-0.419-1.013-0.419s-0.742 0.149-1.013 0.419l-1.601 1.601 3.491 3.479 1.595-1.595c0.27-0.27 0.419-0.63 0.419-1.013s-0.149-0.742-0.419-1.013z"></path>
<path fill="#475d63" style="fill: var(--color13, #475d63)" opacity="0.7" d="M23.205 2.015l-0.006 0.006 1.042 1.038-1.036-1.043z"></path>
<path fill="#475d63" style="fill: var(--color13, #475d63)" opacity="0.7" d="M28.286 1.879l-1.152-1.152c0.188 0.25 0.292 0.554 0.292 0.874 0 0.387-0.149 0.75-0.419 1.024l-1.588 1.606 1.273 1.268 1.595-1.595c0.27-0.27 0.419-0.63 0.419-1.013s-0.149-0.742-0.42-1.013z"></path>
<path fill="#ffca10" style="fill: var(--color14, #ffca10)" opacity="0.7" d="M31.71 15.003c-0.176-0.073-0.378-0.033-0.512 0.102l-15.991 15.991c-0.134 0.134-0.174 0.336-0.102 0.512s0.244 0.29 0.434 0.29h15.991c0.259 0 0.47-0.21 0.47-0.47v-15.991c-0-0.19-0.115-0.361-0.29-0.434zM23.002 28.098l5.133-5.133v5.133h-5.133z"></path>
<path fill="#ffa304" style="fill: var(--color6, #ffa304)" opacity="0.7" d="M31.71 15.003c-0.176-0.073-0.378-0.033-0.512 0.102l-1.234 1.234v15.559h1.566c0.259 0 0.47-0.21 0.47-0.47v-15.991c0-0.19-0.114-0.361-0.29-0.434z"></path>
<path fill="#c96e14" style="fill: var(--color15, #c96e14)" opacity="0.7" d="M32 20.714h-1.806c-0.259 0-0.47 0.21-0.47 0.47s0.21 0.47 0.47 0.47h1.806v-0.939z"></path>
<path fill="#c96e14" style="fill: var(--color15, #c96e14)" opacity="0.7" d="M32 23.069h-1.806c-0.259 0-0.47 0.21-0.47 0.47s0.21 0.47 0.47 0.47h1.806v-0.939z"></path>
<path fill="#c96e14" style="fill: var(--color15, #c96e14)" opacity="0.7" d="M32 25.424h-1.806c-0.259 0-0.47 0.21-0.47 0.47s0.21 0.47 0.47 0.47h1.806v-0.939z"></path>
<path fill="#c96e14" style="fill: var(--color15, #c96e14)" opacity="0.7" d="M32 27.778h-1.806c-0.259 0-0.47 0.21-0.47 0.47s0.21 0.47 0.47 0.47h1.806v-0.939z"></path>
</symbol>
<symbol id="icon-Group-43" viewBox="0 0 32 32">
<path fill="#00ccf2" style="fill: var(--color16, #00ccf2)" opacity="0.7" d="M12.85 5.947c-1.183 1.453-2.759 2.494-4.56 3.013-0.589 0.169-0.928 0.784-0.759 1.372 0.16 0.555 0.716 0.888 1.272 0.783 0.034-0.006 0.067-0.014 0.101-0.024 0.916-0.264 1.785-0.637 2.594-1.109l1.352-4.035z"></path>
<path fill="#00ccf2" style="fill: var(--color16, #00ccf2)" opacity="0.7" d="M16.006 12.766l1.207-3.448c0.364 0.057 0.73 0.086 1.095 0.086 1.644 0 3.258-0.569 4.556-1.647l0.149-0.124c0.462-0.384 0.558-1.071 0.19-1.547-0.386-0.5-1.105-0.576-1.587-0.176l-0.169 0.141c-0.289 0.24-0.6 0.443-0.928 0.609-1.278 0.645-2.814 0.311-3.788-0.738-0.476-0.513-1.158-0.839-1.925-0.839-1.197 0-2.242 0.808-2.544 1.966l-1.488 5.718h5.232z"></path>
<path fill="#ffbe52" style="fill: var(--color17, #ffbe52)" opacity="0.7" d="M10.774 12.766l-4.371 11.459c-0.284 0.744 0.2 1.559 0.989 1.666l0.029 0.004c0.54 0.073 1.061-0.201 1.303-0.682 1.236-2.45 4.885-9.664 4.885-9.664h1.482l-0.756 4.75c-0.112 0.703 0.432 1.34 1.144 1.34 0.52 0 0.976-0.347 1.116-0.847l1.42-5.102c0.409-1.469-0.696-2.924-2.221-2.924h-5.021z"></path>
<path fill="#ff6371" style="fill: var(--color18, #ff6371)" opacity="0.7" d="M31.375 13.901l-5.387 1.084 1.171 1.171-3.744 3.744-2.656-2.656-12.341 12.339 1.793 1.792 10.548-10.547 2.656 2.656 5.537-5.536 1.339 1.339 1.084-5.386z"></path>
<path fill="#fed2a4" style="fill: var(--color19, #fed2a4)" opacity="0.7" d="M16.427 5.082c1.231 0 2.229-0.998 2.229-2.229s-0.998-2.229-2.229-2.229c-1.231 0-2.229 0.998-2.229 2.229s0.998 2.229 2.229 2.229z"></path>
<path fill="#ff9357" style="fill: var(--color20, #ff9357)" opacity="0.7" d="M5.483 17.455l-4.62-4.619c-0.317-0.317-0.317-0.832 0-1.149l3.353-3.353c0.317-0.317 0.832-0.317 1.149 0l4.62 4.619c0.317 0.317 0.317 0.832 0 1.149l-3.353 3.353c-0.317 0.317-0.832 0.317-1.149 0z"></path>
<path fill="#fff" style="fill: var(--color21, #fff)" opacity="0.7" d="M4.74 13.619l-0.191-0.191c-0.336-0.336-0.336-0.88 0-1.216l0.799-0.799 1.407 1.407-0.799 0.799c-0.336 0.336-0.88 0.336-1.216 0z"></path>
<path fill="#000" style="fill: var(--color22, #000)" opacity="0.7" d="M31.817 13.459c-0.148-0.148-0.36-0.212-0.565-0.171l-5.387 1.084c-0.226 0.046-0.408 0.212-0.475 0.432s-0.007 0.46 0.156 0.623l0.729 0.729-2.86 2.86-2.214-2.214c-0.117-0.117-0.276-0.183-0.442-0.183s-0.325 0.066-0.442 0.183l-2.717 2.717 1.019-3.662c0.248-0.89 0.069-1.823-0.49-2.558-0.342-0.451-0.794-0.783-1.306-0.973l0.815-2.327c0.225 0.020 0.449 0.030 0.671 0.030 1.805 0 3.565-0.636 4.955-1.791l0.149-0.124c0.733-0.609 0.858-1.667 0.285-2.409-0.291-0.376-0.71-0.612-1.182-0.664s-0.933 0.086-1.299 0.39l-0.169 0.141c-0.249 0.207-0.522 0.386-0.81 0.531-0.964 0.486-2.167 0.27-2.967-0.522 1.163-0.36 2.011-1.446 2.011-2.726 0-1.573-1.28-2.853-2.854-2.853s-2.854 1.28-2.854 2.853c0 0.626 0.203 1.205 0.546 1.676-0.649 0.14-1.233 0.474-1.68 0.948-0.026 0.023-0.051 0.048-0.074 0.075-1.102 1.353-2.571 2.324-4.248 2.807-0.454 0.131-0.814 0.432-1.029 0.815l-1.281-1.281c-0.561-0.56-1.473-0.56-2.033 0l-3.353 3.353c-0.272 0.272-0.421 0.632-0.421 1.016s0.15 0.745 0.421 1.016l4.619 4.619c0.272 0.271 0.633 0.421 1.017 0.421s0.745-0.15 1.017-0.421l1.736-1.736-0.823 2.158c-0.123 0.322 0.039 0.684 0.361 0.807 0.073 0.028 0.149 0.041 0.223 0.041 0.252 0 0.489-0.153 0.584-0.402l2.050-5.375h4.59c0.53 0 1.018 0.242 1.338 0.664s0.423 0.957 0.281 1.467l-1.42 5.102c-0.064 0.23-0.275 0.39-0.513 0.39-0.214 0-0.346-0.117-0.405-0.187s-0.155-0.218-0.121-0.43l0.756-4.75c0.029-0.181-0.023-0.365-0.142-0.504s-0.293-0.219-0.475-0.219h-1.482c-0.236 0-0.451 0.132-0.558 0.343-0.036 0.072-3.663 7.242-4.885 9.664-0.122 0.243-0.388 0.381-0.661 0.344l-0.030-0.004c-0.186-0.025-0.348-0.132-0.444-0.294s-0.112-0.355-0.046-0.53l0.385-1.010c0.123-0.322-0.039-0.684-0.361-0.807s-0.684 0.039-0.807 0.361l-0.385 1.010c-0.204 0.534-0.153 1.122 0.139 1.614s0.784 0.817 1.35 0.894l0.030 0.004c0.086 0.012 0.171 0.017 0.256 0.017 0.708 0 1.366-0.395 1.689-1.037 1.068-2.116 3.971-7.856 4.711-9.32h0.365l-0.641 4.027c-0.082 0.516 0.065 1.040 0.405 1.437 0.218 0.256 0.501 0.441 0.814 0.541l-6.963 6.962c-0.117 0.117-0.183 0.276-0.183 0.442s0.066 0.325 0.183 0.442l1.793 1.792c0.122 0.122 0.282 0.183 0.442 0.183s0.32-0.061 0.442-0.183l3.447-3.446c0.244-0.244 0.244-0.64 0-0.884s-0.64-0.244-0.884 0l-3.005 3.004-0.909-0.909 11.457-11.456 2.214 2.214c0.117 0.117 0.276 0.183 0.442 0.183s0.325-0.066 0.442-0.183l3.744-3.744c0.244-0.244 0.244-0.64 0-0.884l-0.346-0.346 3.322-0.668-0.669 3.322-0.514-0.514c-0.244-0.244-0.64-0.244-0.884 0l-5.095 5.094-2.214-2.214c-0.244-0.244-0.64-0.244-0.884 0l-3.566 3.565c-0.244 0.244-0.244 0.64 0 0.884s0.64 0.244 0.884 0l3.124-3.123 2.214 2.214c0.244 0.244 0.64 0.244 0.884 0l5.095-5.094 0.897 0.897c0.163 0.163 0.402 0.223 0.623 0.156s0.387-0.249 0.432-0.475l1.084-5.386c0.041-0.205-0.023-0.417-0.171-0.565zM16.427 1.25c0.884 0 1.604 0.719 1.604 1.603s-0.719 1.603-1.604 1.603-1.604-0.719-1.604-1.603c0-0.884 0.719-1.603 1.604-1.603zM10.242 12.327l-0.761-0.761c0.361-0.118 0.716-0.253 1.064-0.404l-0.303 1.164zM8.133 10.159c-0.074-0.256 0.075-0.525 0.331-0.599 1.028-0.296 1.986-0.753 2.849-1.35l-0.353 1.357c-0.703 0.388-1.451 0.699-2.229 0.923-0.014 0.004-0.030 0.008-0.045 0.011-0.115 0.022-0.231-0.001-0.328-0.056l-0.183-0.183c-0.018-0.032-0.033-0.066-0.044-0.102zM4.658 8.777c0.037-0.037 0.085-0.055 0.133-0.055s0.096 0.018 0.133 0.055l2.278 2.278c0.106 0.144 0.232 0.27 0.374 0.374l1.967 1.967c0.073 0.073 0.073 0.192 0 0.265l-1.235 1.234-1.373-1.373 0.262-0.261c0.244-0.244 0.244-0.64 0-0.884l-1.407-1.407c-0.244-0.244-0.64-0.244-0.884 0l-0.262 0.261-1.221-1.22 1.235-1.234zM5.514 13.176c-0.060 0.060-0.13 0.069-0.166 0.069s-0.106-0.009-0.166-0.069v-0l-0.191-0.191c-0.060-0.060-0.069-0.13-0.069-0.166s0.009-0.106 0.069-0.166l0.357-0.357 0.523 0.523-0.357 0.357zM6.19 17.014c-0.045 0.045-0.097 0.055-0.133 0.055s-0.087-0.010-0.133-0.055l-4.619-4.619c-0.045-0.045-0.055-0.097-0.055-0.133s0.010-0.087 0.055-0.133l1.235-1.234 1.279 1.279c-0.096 0.199-0.147 0.418-0.147 0.645 0 0.397 0.155 0.769 0.435 1.050l0.191 0.191c0.28 0.28 0.653 0.435 1.050 0.435 0.227 0 0.446-0.051 0.645-0.147l1.431 1.431-1.235 1.234zM15.118 12.141h-3.536l1.284-4.935c0.23-0.882 1.027-1.499 1.939-1.499 0.563 0 1.084 0.227 1.467 0.639 1.174 1.265 3.036 1.623 4.528 0.871 0.372-0.188 0.724-0.418 1.046-0.686l0.169-0.141c0.102-0.085 0.231-0.124 0.363-0.109s0.249 0.080 0.33 0.186c0.157 0.203 0.114 0.51-0.095 0.684l-0.149 0.124c-1.167 0.969-2.643 1.502-4.156 1.502-0.329 0-0.665-0.026-0.999-0.078-0.298-0.047-0.586 0.127-0.686 0.411l-1.061 3.030h-0.445z"></path>
<path fill="#000" style="fill: var(--color22, #000)" opacity="0.7" d="M15.436 25.548c-0.164 0-0.326 0.067-0.442 0.183s-0.183 0.277-0.183 0.442c0 0.165 0.067 0.326 0.183 0.442s0.278 0.183 0.442 0.183 0.326-0.066 0.442-0.183c0.116-0.116 0.183-0.277 0.183-0.442s-0.067-0.326-0.183-0.442c-0.116-0.116-0.277-0.183-0.442-0.183z"></path>
<path fill="#000" style="fill: var(--color22, #000)" opacity="0.7" d="M7.678 21.507c0.164 0 0.326-0.067 0.442-0.183s0.183-0.277 0.183-0.442-0.067-0.326-0.183-0.442c-0.117-0.116-0.278-0.183-0.442-0.183s-0.326 0.067-0.443 0.183c-0.116 0.116-0.183 0.278-0.183 0.442s0.066 0.326 0.183 0.442c0.117 0.116 0.278 0.183 0.443 0.183z"></path>
</symbol>
<symbol id="icon-Group" viewBox="0 0 32 32">
<path fill="#4d4d99" style="fill: var(--color23, #4d4d99)" d="M17.875 32h-3.75c-0.494 0-0.905-0.384-0.936-0.879l-0.082-1.375c-1.696-0.357-3.325-1.033-4.779-1.983l-0.989 0.872c-0.37 0.327-0.93 0.311-1.284-0.040l-2.651-2.651c-0.35-0.35-0.368-0.912-0.040-1.284l0.873-0.989c-0.95-1.453-1.626-3.082-1.985-4.778l-1.374-0.082c-0.494-0.031-0.879-0.44-0.879-0.936v-3.75c0-0.495 0.385-0.905 0.879-0.936l1.374-0.082c0.359-1.697 1.035-3.325 1.985-4.778l-0.873-0.989c-0.328-0.372-0.309-0.934 0.040-1.284l2.651-2.651c0.352-0.351 0.914-0.366 1.284-0.040l0.989 0.873c1.454-0.95 3.084-1.626 4.779-1.983l0.082-1.375c0.031-0.494 0.441-0.879 0.936-0.879h3.75c0.494 0 0.905 0.385 0.936 0.879l0.082 1.375c1.696 0.357 3.325 1.033 4.779 1.983l0.989-0.873c0.372-0.325 0.932-0.309 1.284 0.040l2.651 2.651c0.35 0.35 0.368 0.912 0.040 1.284l-0.873 0.989c0.95 1.453 1.626 3.082 1.985 4.778l1.374 0.082c0.494 0.031 0.879 0.44 0.879 0.936v3.75c0 0.495-0.384 0.905-0.879 0.936l-1.374 0.082c-0.359 1.697-1.035 3.325-1.985 4.778l0.873 0.989c0.328 0.372 0.309 0.934-0.040 1.284l-2.651 2.651c-0.352 0.351-0.914 0.366-1.284 0.040l-0.989-0.872c-1.454 0.95-3.084 1.626-4.779 1.983l-0.082 1.375c-0.031 0.494-0.441 0.879-0.936 0.879z"></path>
<path fill="#292966" style="fill: var(--color24, #292966)" d="M31.121 13.189l-1.374-0.082c-0.359-1.697-1.035-3.325-1.985-4.778l0.873-0.989c0.328-0.372 0.309-0.934-0.040-1.284l-2.651-2.651c-0.352-0.35-0.912-0.365-1.284-0.040l-0.989 0.873c-1.454-0.95-3.084-1.626-4.779-1.983l-0.082-1.375c-0.031-0.494-0.441-0.879-0.936-0.879h-1.875v32h1.875c0.494 0 0.905-0.384 0.936-0.879l0.082-1.375c1.696-0.357 3.325-1.033 4.779-1.983l0.989 0.872c0.37 0.326 0.932 0.31 1.284-0.040l2.651-2.651c0.35-0.35 0.368-0.912 0.040-1.284l-0.873-0.989c0.95-1.453 1.626-3.082 1.985-4.778l1.374-0.082c0.494-0.031 0.879-0.44 0.879-0.936v-3.75c0-0.495-0.384-0.905-0.879-0.936z"></path>
<path fill="#9ff" style="fill: var(--color25, #9ff)" d="M13.188 21.625c0-0.518-0.419-0.937-0.938-0.937-0.516 0-0.938-0.42-0.938-0.938v-1.875c0-0.723-0.282-1.376-0.731-1.875 0.45-0.499 0.731-1.152 0.731-1.875v-1.875c0-0.517 0.421-0.938 0.938-0.938 0.518 0 0.938-0.419 0.938-0.937s-0.419-0.938-0.938-0.938c-1.551 0-2.812 1.262-2.812 2.812v1.875c0 0.517-0.421 0.938-0.938 0.938-0.518 0-0.938 0.419-0.938 0.938s0.419 0.938 0.938 0.938c0.516 0 0.938 0.42 0.938 0.938v1.875c0 1.551 1.262 2.812 2.812 2.812 0.518 0 0.938-0.419 0.938-0.938z"></path>
<path fill="#66e6ff" style="fill: var(--color26, #66e6ff)" d="M24.438 16c0-0.518-0.419-0.938-0.938-0.938-0.516 0-0.938-0.42-0.938-0.938v-1.875c0-1.551-1.262-2.812-2.812-2.812-0.518 0-0.938 0.419-0.938 0.938s0.419 0.937 0.938 0.937c0.516 0 0.938 0.42 0.938 0.938v1.875c0 0.723 0.282 1.376 0.732 1.875-0.45 0.499-0.732 1.152-0.732 1.875v1.875c0 0.517-0.421 0.938-0.938 0.938-0.518 0-0.938 0.419-0.938 0.937s0.419 0.938 0.938 0.938c1.551 0 2.812-1.262 2.812-2.812v-1.875c0-0.517 0.421-0.938 0.938-0.938 0.518 0 0.938-0.419 0.938-0.938z"></path>
<path fill="#9ff" style="fill: var(--color25, #9ff)" d="M14.125 16.938c0.518 0 0.938-0.42 0.938-0.938s-0.42-0.938-0.938-0.938c-0.518 0-0.937 0.42-0.937 0.938s0.42 0.938 0.937 0.938z"></path>
<path fill="#66e6ff" style="fill: var(--color26, #66e6ff)" d="M17.875 16.938c0.518 0 0.937-0.42 0.937-0.938s-0.42-0.938-0.937-0.938c-0.518 0-0.938 0.42-0.938 0.938s0.42 0.938 0.938 0.938z"></path>
</symbol>
<symbol id="icon-logo" viewBox="0 0 79 32">
<path fill="#73e6d3" style="fill: var(--color27, #73e6d3)" d="M27.443 9.64l-8.141 6.41-6.669 2.141-8.54-7.923 23.35-0.628z"></path>
<path fill="#f3f5f9" style="fill: var(--color28, #f3f5f9)" d="M10.366 18.645l0.74 1.282-5.17 2.985-0.74-1.282 5.17-2.985z"></path>
<path fill="#f3f5f9" style="fill: var(--color28, #f3f5f9)" d="M8.886 16.081l0.74 1.282-3.846 2.22-0.74-1.282 3.846-2.22z"></path>
<path fill="#e1e6f0" style="fill: var(--color29, #e1e6f0)" d="M11.846 21.209l0.74 1.282-3.846 2.22-0.74-1.282 3.846-2.22z"></path>
<path fill="#51cccc" style="fill: var(--color30, #51cccc)" d="M27.443 9.64l-14.81 8.551 2.592 11.357 12.218-19.907z"></path>
<path fill="#e1e6f0" style="fill: var(--color29, #e1e6f0)" d="M10.736 19.285l0.37 0.641-5.17 2.985-0.37-0.641 5.17-2.985z"></path>
<path fill="#171832" style="fill: var(--color31, #171832)" d="M14.415 23.040c-0.050 0-0.092-0.030-0.125-0.090-0.030-0.060-0.045-0.115-0.045-0.165 0-0.057 0.012-0.1 0.035-0.13 0.027-0.033 0.070-0.052 0.13-0.055 0.2-0.017 0.37-0.048 0.51-0.095 0.143-0.050 0.215-0.125 0.215-0.225l0.005-5.41c0-0.133-0.038-0.233-0.115-0.3s-0.163-0.11-0.26-0.13c-0.097-0.020-0.225-0.038-0.385-0.055-0.073-0.007-0.122-0.020-0.145-0.040-0.023-0.023-0.035-0.072-0.035-0.145 0-0.050 0.015-0.105 0.045-0.165 0.033-0.060 0.075-0.090 0.125-0.090h2.74c0.050 0 0.090 0.030 0.12 0.090 0.033 0.060 0.050 0.115 0.050 0.165 0 0.057-0.013 0.102-0.040 0.135-0.023 0.030-0.065 0.047-0.125 0.050-0.203 0.017-0.375 0.050-0.515 0.1-0.14 0.047-0.21 0.12-0.21 0.22l-0.005 5.41c0 0.133 0.038 0.233 0.115 0.3s0.163 0.11 0.26 0.13c0.097 0.020 0.225 0.038 0.385 0.055 0.073 0.007 0.122 0.022 0.145 0.045 0.023 0.020 0.035 0.067 0.035 0.14 0 0.050-0.017 0.105-0.050 0.165-0.030 0.060-0.070 0.090-0.12 0.090h-2.74zM18.31 23.040c-0.050 0-0.092-0.030-0.125-0.090-0.030-0.060-0.045-0.115-0.045-0.165 0-0.057 0.012-0.1 0.035-0.13s0.067-0.048 0.13-0.055c0.55-0.043 0.825-0.183 0.825-0.42v-5.22c0-0.19-0.087-0.327-0.26-0.41s-0.372-0.138-0.595-0.165c-0.073-0.007-0.122-0.020-0.145-0.040-0.023-0.023-0.035-0.072-0.035-0.145 0-0.050 0.015-0.105 0.045-0.165 0.033-0.060 0.075-0.090 0.125-0.090h1.94l3.94 5.275h0.060v-4.35c0-0.13-0.050-0.228-0.15-0.295-0.097-0.067-0.193-0.108-0.29-0.125-0.097-0.020-0.252-0.042-0.465-0.065-0.073-0.007-0.122-0.020-0.145-0.040-0.023-0.023-0.035-0.072-0.035-0.145 0-0.050 0.015-0.105 0.045-0.165 0.033-0.060 0.075-0.090 0.125-0.090h2.31c0.050 0 0.090 0.030 0.12 0.090 0.033 0.060 0.050 0.115 0.050 0.165 0 0.057-0.012 0.1-0.035 0.13s-0.067 0.048-0.13 0.055c-0.173 0.020-0.315 0.042-0.425 0.065s-0.213 0.068-0.31 0.135c-0.093 0.063-0.14 0.155-0.14 0.275v5.615c0 0.060 0.005 0.123 0.015 0.19l0.015 0.175c0.010 0.123-0.027 0.212-0.11 0.265-0.080 0.057-0.172 0.085-0.275 0.085-0.050 0-0.102-0.012-0.155-0.035-0.050-0.020-0.088-0.045-0.115-0.075l-4.35-5.705h-0.085v4.74c0 0.13 0.048 0.228 0.145 0.295 0.1 0.067 0.198 0.11 0.295 0.13 0.097 0.017 0.252 0.037 0.465 0.060 0.073 0.007 0.122 0.022 0.145 0.045 0.023 0.020 0.035 0.067 0.035 0.14 0 0.050-0.017 0.105-0.050 0.165-0.030 0.060-0.070 0.090-0.12 0.090h-2.275zM26.41 23.040c-0.050 0-0.092-0.030-0.125-0.090-0.030-0.060-0.045-0.115-0.045-0.165 0-0.057 0.012-0.1 0.035-0.13s0.067-0.048 0.13-0.055c0.55-0.043 0.825-0.183 0.825-0.42v-5.22c0-0.19-0.087-0.327-0.26-0.41s-0.372-0.138-0.595-0.165c-0.073-0.007-0.122-0.020-0.145-0.040-0.023-0.023-0.035-0.072-0.035-0.145 0-0.050 0.015-0.105 0.045-0.165 0.033-0.060 0.075-0.090 0.125-0.090h1.94l3.94 5.275h0.060v-4.35c0-0.13-0.050-0.228-0.15-0.295-0.097-0.067-0.193-0.108-0.29-0.125-0.097-0.020-0.252-0.042-0.465-0.065-0.073-0.007-0.122-0.020-0.145-0.040-0.023-0.023-0.035-0.072-0.035-0.145 0-0.050 0.015-0.105 0.045-0.165 0.033-0.060 0.075-0.090 0.125-0.090h2.31c0.050 0 0.090 0.030 0.12 0.090 0.033 0.060 0.050 0.115 0.050 0.165 0 0.057-0.012 0.1-0.035 0.13s-0.067 0.048-0.13 0.055c-0.173 0.020-0.315 0.042-0.425 0.065s-0.213 0.068-0.31 0.135c-0.093 0.063-0.14 0.155-0.14 0.275v5.615c0 0.060 0.005 0.123 0.015 0.19l0.015 0.175c0.010 0.123-0.027 0.212-0.11 0.265-0.080 0.057-0.172 0.085-0.275 0.085-0.050 0-0.102-0.012-0.155-0.035-0.050-0.020-0.088-0.045-0.115-0.075l-4.35-5.705h-0.085v4.74c0 0.13 0.048 0.228 0.145 0.295 0.1 0.067 0.198 0.11 0.295 0.13 0.097 0.017 0.252 0.037 0.465 0.060 0.073 0.007 0.122 0.022 0.145 0.045 0.023 0.020 0.035 0.067 0.035 0.14 0 0.050-0.017 0.105-0.050 0.165-0.030 0.060-0.070 0.090-0.12 0.090h-2.275zM37.98 23.185c-0.703 0-1.317-0.165-1.84-0.495s-0.925-0.778-1.205-1.345c-0.277-0.567-0.415-1.195-0.415-1.885 0-0.687 0.14-1.308 0.42-1.865 0.283-0.557 0.688-0.995 1.215-1.315 0.53-0.323 1.148-0.485 1.855-0.485s1.32 0.162 1.84 0.485c0.52 0.32 0.917 0.758 1.19 1.315 0.277 0.553 0.415 1.175 0.415 1.865s-0.14 1.318-0.42 1.885c-0.28 0.563-0.683 1.012-1.21 1.345-0.527 0.33-1.142 0.495-1.845 0.495zM38 22.715c0.493 0 0.885-0.127 1.175-0.38 0.293-0.257 0.502-0.622 0.625-1.095 0.123-0.477 0.185-1.067 0.185-1.77 0-0.7-0.065-1.285-0.195-1.755-0.127-0.47-0.338-0.83-0.635-1.080-0.293-0.25-0.688-0.375-1.185-0.375s-0.892 0.125-1.185 0.375c-0.29 0.25-0.497 0.61-0.62 1.080-0.12 0.467-0.18 1.052-0.18 1.755 0 1.063 0.153 1.87 0.46 2.42s0.825 0.825 1.555 0.825zM42.715 16.77c-0.040-0.113-0.097-0.197-0.17-0.25-0.070-0.053-0.143-0.087-0.22-0.1-0.073-0.017-0.167-0.027-0.28-0.030-0.063 0-0.108-0.002-0.135-0.005-0.073-0.007-0.122-0.020-0.145-0.040-0.023-0.023-0.035-0.072-0.035-0.145 0-0.050 0.017-0.105 0.050-0.165 0.030-0.060 0.070-0.090 0.12-0.090h2.845c0.050 0 0.090 0.030 0.12 0.090 0.033 0.060 0.050 0.115 0.050 0.165 0 0.057-0.012 0.1-0.035 0.13s-0.067 0.048-0.13 0.055l-0.205 0.010c-0.177 0.003-0.305 0.013-0.385 0.030-0.077 0.017-0.115 0.055-0.115 0.115 0 0.017 0.005 0.038 0.015 0.065l1.89 5.085 1.75-4.935c0.007-0.027 0.010-0.045 0.010-0.055 0-0.093-0.075-0.165-0.225-0.215-0.15-0.053-0.342-0.087-0.575-0.1-0.064-0.007-0.107-0.025-0.13-0.055s-0.035-0.073-0.035-0.13c0-0.050 0.015-0.105 0.045-0.165 0.033-0.060 0.075-0.090 0.125-0.090h2.28c0.050 0 0.090 0.030 0.12 0.090 0.033 0.060 0.050 0.115 0.050 0.165 0 0.073-0.012 0.122-0.035 0.145-0.023 0.020-0.072 0.033-0.145 0.040-0.033 0.003-0.12 0.010-0.26 0.020-0.14 0.007-0.255 0.040-0.345 0.1s-0.158 0.148-0.205 0.265l-2.425 6.36h-0.615l-2.62-6.36zM56.215 22.6c0.073 0.007 0.122 0.022 0.145 0.045 0.023 0.020 0.035 0.067 0.035 0.14 0 0.050-0.017 0.105-0.050 0.165-0.030 0.060-0.070 0.090-0.12 0.090h-2.71c-0.050 0-0.092-0.030-0.125-0.090-0.030-0.060-0.045-0.115-0.045-0.165 0-0.057 0.012-0.1 0.035-0.13s0.067-0.048 0.13-0.055l0.205-0.010c0.17-0.003 0.29-0.012 0.36-0.025 0.070-0.017 0.105-0.053 0.105-0.11 0-0.027-0.005-0.052-0.015-0.075l-0.61-1.78-2.4-0.005-0.615 1.785c-0.007 0.017-0.010 0.037-0.010 0.060 0 0.060 0.037 0.098 0.11 0.115s0.198 0.028 0.375 0.035c0.050 0 0.132 0.003 0.245 0.010 0.064 0.007 0.107 0.025 0.13 0.055s0.035 0.073 0.035 0.13c0 0.050-0.017 0.105-0.050 0.165-0.030 0.060-0.070 0.090-0.12 0.090h-2.115c-0.053 0-0.095-0.025-0.125-0.075s-0.045-0.11-0.045-0.18c0-0.073 0.012-0.12 0.035-0.14 0.023-0.023 0.072-0.038 0.145-0.045 0.026-0.003 0.072-0.005 0.135-0.005 0.107-0.003 0.193-0.012 0.26-0.025 0.070-0.017 0.138-0.052 0.205-0.105s0.122-0.137 0.165-0.25l2.33-6.38h0.92l2.275 6.38c0.040 0.113 0.093 0.198 0.16 0.255 0.067 0.053 0.135 0.087 0.205 0.1 0.073 0.013 0.163 0.022 0.27 0.025 0.064 0 0.11 0.002 0.14 0.005zM52.425 17.1l-1.125 3.070h2.11l-0.985-3.070zM57.895 23.040c-0.050 0-0.092-0.030-0.125-0.090-0.030-0.060-0.045-0.115-0.045-0.165 0-0.057 0.012-0.1 0.035-0.13s0.067-0.048 0.13-0.055c0.3-0.017 0.545-0.057 0.735-0.12 0.193-0.067 0.29-0.183 0.29-0.35l0.005-5.69h-1.265c-0.173 0-0.315 0.102-0.425 0.305-0.107 0.2-0.185 0.422-0.235 0.665s-0.082 0.455-0.095 0.635c-0.013 0.11-0.085 0.165-0.215 0.165-0.050 0-0.107-0.015-0.17-0.045-0.060-0.033-0.088-0.075-0.085-0.125 0.020-0.507 0.044-0.982 0.070-1.425 0.030-0.447 0.062-0.67 0.095-0.67h5.87c0.033 0 0.065 0.238 0.095 0.715 0.033 0.473 0.056 0.933 0.070 1.38 0 0.050-0.030 0.092-0.090 0.125-0.060 0.030-0.115 0.045-0.165 0.045-0.134 0-0.206-0.055-0.22-0.165-0.026-0.34-0.096-0.692-0.21-1.055-0.113-0.367-0.293-0.55-0.54-0.55h-1.235l-0.005 5.675c0 0.133 0.052 0.233 0.155 0.3s0.221 0.112 0.355 0.135c0.133 0.020 0.3 0.037 0.5 0.050 0.073 0.007 0.122 0.022 0.145 0.045 0.023 0.020 0.035 0.067 0.035 0.14 0 0.050-0.017 0.105-0.050 0.165-0.030 0.060-0.070 0.090-0.12 0.090h-3.29zM63.345 22.785c0-0.057 0.012-0.1 0.035-0.13s0.067-0.048 0.13-0.055c0.2-0.017 0.372-0.048 0.515-0.095 0.143-0.050 0.215-0.125 0.215-0.225v-5.41c0-0.13-0.038-0.228-0.115-0.295s-0.162-0.11-0.255-0.13c-0.090-0.020-0.22-0.040-0.39-0.060-0.073-0.007-0.122-0.020-0.145-0.040-0.023-0.023-0.035-0.072-0.035-0.145 0-0.050 0.015-0.105 0.045-0.165 0.034-0.060 0.075-0.090 0.125-0.090l5.195-0.005 0.175 1.625c0.003 0.053-0.018 0.095-0.065 0.125-0.044 0.030-0.088 0.045-0.135 0.045-0.070 0-0.134-0.010-0.19-0.030-0.057-0.023-0.103-0.068-0.14-0.135l-0.19-0.365c-0.1-0.207-0.182-0.358-0.245-0.455-0.064-0.1-0.14-0.177-0.23-0.23-0.090-0.057-0.207-0.085-0.35-0.085l-1.785 0.005v2.71l1.225-0.005c0.080-0.010 0.157-0.068 0.23-0.175s0.135-0.227 0.185-0.36c0.050-0.137 0.080-0.243 0.090-0.32 0.014-0.107 0.090-0.16 0.23-0.16 0.047 0 0.095 0.017 0.145 0.050 0.053 0.030 0.080 0.070 0.080 0.12v2.215c0 0.050-0.027 0.092-0.080 0.125-0.050 0.030-0.098 0.045-0.145 0.045-0.063 0-0.118-0.012-0.165-0.035-0.047-0.027-0.073-0.070-0.080-0.13-0.006-0.083-0.035-0.197-0.085-0.34-0.050-0.147-0.114-0.275-0.19-0.385-0.077-0.113-0.158-0.17-0.245-0.17l-1.195 0.005v2.425c0 0.293 0.148 0.453 0.445 0.48l1.435-0.005c0.31 0 0.57-0.103 0.78-0.31 0.21-0.21 0.392-0.56 0.545-1.050 0.017-0.053 0.060-0.093 0.13-0.12 0.073-0.030 0.143-0.045 0.21-0.045s0.125 0.015 0.175 0.045c0.053 0.030 0.084 0.072 0.090 0.125l-0.23 1.86-5.575 0.005c-0.050 0-0.092-0.030-0.125-0.090-0.030-0.060-0.045-0.115-0.045-0.165zM70.44 23.040c-0.050 0-0.092-0.030-0.125-0.090-0.030-0.060-0.045-0.115-0.045-0.165 0-0.057 0.012-0.1 0.035-0.13s0.067-0.048 0.13-0.055c0.2-0.017 0.37-0.048 0.51-0.095 0.143-0.050 0.215-0.125 0.215-0.225v-5.41c0-0.13-0.038-0.228-0.115-0.295s-0.162-0.11-0.255-0.13c-0.090-0.020-0.22-0.040-0.39-0.060-0.073-0.007-0.122-0.020-0.145-0.040-0.023-0.023-0.035-0.072-0.035-0.145 0-0.050 0.015-0.105 0.045-0.165 0.033-0.060 0.075-0.090 0.125-0.090h3.145c0.864 0.003 1.578 0.163 2.145 0.48s0.981 0.732 1.245 1.245c0.263 0.51 0.395 1.070 0.395 1.68 0 0.817-0.178 1.503-0.535 2.060-0.357 0.553-0.803 0.963-1.34 1.23s-1.075 0.4-1.615 0.4h-3.39zM72.425 22.2c0 0.090 0.075 0.168 0.225 0.235 0.153 0.067 0.425 0.1 0.815 0.1 0.483 0 0.893-0.072 1.23-0.215 0.34-0.143 0.617-0.447 0.83-0.91 0.217-0.463 0.325-1.143 0.325-2.040 0-1.12-0.228-1.89-0.685-2.31s-1.040-0.63-1.75-0.63h-0.985l-0.005 5.77z"></path>
</symbol>
</defs>
</svg>
